#!OML:ASF E:\emotionWalksFemale\Project 1\Capture day 1\Session 1\Female1.ASF
:FULLY-SPECIFIED
:DEGREES
2490
root 10.2595 15.1941 21.9298 -2.13088 5.8997 1.67086
lowerback 6.34237 0.358748 -2.41823
upperback 1.57961 0.341903 0.834649
thorax -1.9461 0.180737 2.19089
lowerneck -6.71824 -2.19542 -7.12955
upperneck 47.4407 -1.78994 0.9639
head 19.6996 -1.80189 1.51206
rclavicle -5.56597e-015 -5.1684e-015
rhumerus -37.1225 2.0693 -82.054
rradius 30.4506
rwrist 19.3071
rhand -7.32597 -48.4217
rfingers 7.12502
rthumb 18.5573 -77.5566
lclavicle -5.56597e-015 -5.1684e-015
lhumerus -33.2101 10.3625 82.7653
lradius 32.3105
lwrist -16.8104
lhand -1.99993 -29.9892
lfingers 7.12502
lthumb 23.6735 -1.4269
rfemur -27.644 10.4565 17.3945
rtibia 30.2272
rfoot -17.621 -24.1918
rtoes -12.1584
lfemur 5.88094 -16.5442 -32.5792
ltibia 25.0064
lfoot -23.6554 11.3113
ltoes 8.13802
2491
root 10.2425 15.193 22.0205 -2.03877 6.09432 1.70306
lowerback 6.40097 0.367574 -2.58919
upperback 1.43295 0.341289 0.891204
thorax -2.13109 0.185476 2.3453
lowerneck -6.70746 -2.22851 -7.08598
upperneck 47.5331 -1.8317 0.924152
head 19.764 -1.81529 1.47854
rclavicle 3.97569e-016 -1.98785e-015
rhumerus -37.3315 2.08474 -81.9767
rradius 30.3418
rwrist 19.2486
rhand -7.1697 -48.7665
rfingers 7.12502
rthumb 18.7076 -77.887
lclavicle 3.97569e-016 -1.98785e-015
lhumerus -33.6082 10.2644 82.8431
lradius 32.4291
lwrist -16.9284
lhand -1.93678 -29.9002
lfingers 7.12502
lthumb 23.734 -1.34579
rfemur -27.7143 12.3439 16.5444
rtibia 28.5672
rfoot -17.6761 -26.0058
rtoes -11.0858
lfemur 6.24549 -16.1662 -32.4927
ltibia 24.8214
lfoot -23.4045 11.5281
ltoes 3.14321
2492
root 10.2304 15.1882 22.1037 -1.88209 6.38823 1.90274
lowerback 6.38739 0.344005 -2.75345
upperback 1.31269 0.297471 0.855454
thorax -2.24546 0.167609 2.40441
lowerneck -6.69446 -2.25593 -7.13347
upperneck 47.5589 -1.88423 0.982546
head 19.7849 -1.83567 1.50869
rclavicle 3.18055e-015 1.19271e-014
rhumerus -37.5088 2.15234 -81.9399
rradius 30.3608
rwrist 18.9921
rhand -6.94517 -49.068
rfingers 7.12502
rthumb 18.9236 -78.1675
lclavicle 3.18055e-015 1.19271e-014
lhumerus -33.7981 10.1231 82.8844
lradius 32.4691
lwrist -16.9403
lhand -1.82002 -29.7875
lfingers 7.12502
lthumb 23.846 -1.24769
rfemur -27.6915 13.5379 15.7442
rtibia 27.2354
rfoot -18.2293 -27.2856
rtoes -7.76641
lfemur 6.68395 -15.5786 -32.5832
ltibia 24.4093
lfoot -22.5603 12.311
ltoes -7.18172
2493
root 10.2258 15.1687 22.1879 -1.73812 6.69746 2.29186
lowerback 6.48042 0.322115 -2.99265
upperback 1.17795 0.245584 0.75885
thorax -2.43366 0.14778 2.44348
lowerneck -6.79451 -2.29902 -7.13992
upperneck 47.7233 -1.92734 0.967839
head 19.9369 -1.85661 1.49677
rclavicle 2.13197e-014 -5.1684e-015
rhumerus -37.7153 2.13068 -81.8074
rradius 30.3691
rwrist 18.9833
rhand -7.21457 -48.5264
rfingers 7.12502
rthumb 18.6644 -77.651
lclavicle 2.13197e-014 -5.1684e-015
lhumerus -33.9917 9.9329 82.9784
lradius 32.4357
lwrist -16.8863
lhand -1.70338 -29.4315
lfingers 7.12502
lthumb 23.9579 -0.906327
rfemur -27.9205 15.2278 14.3641
rtibia 26.0711
rfoot -20.082 -28.5652
rtoes -1.71229
lfemur 7.18834 -15.9135 -32.9879
ltibia 23.9215
lfoot -22.9433 11.0523
ltoes 1.65938
2494
root 10.2209 15.1741 22.2742 -1.63613 6.97838 2.61472
lowerback 6.42518 0.289434 -3.15858
upperback 1.16646 0.189974 0.668701
thorax -2.41125 0.120851 2.44845
lowerneck -6.97514 -2.35096 -7.11929
upperneck 47.8176 -1.96254 0.89968
head 20.0609 -1.87499 1.45249
rclavicle 1.69712e-014 -1.59028e-015
rhumerus -37.7582 1.86913 -81.6384
rradius 30.3563
rwrist 19.3311
rhand -7.56002 -47.8576
rfingers 7.12502
rthumb 18.3321 -77.0137
lclavicle 1.69712e-014 -1.59028e-015
lhumerus -33.9746 9.96525 83.0523
lradius 32.2613
lwrist -16.9625
lhand -1.63308 -29.4921
lfingers 7.12502
lthumb 24.0253 -0.975814
rfemur -27.9607 16.5805 13.3053
rtibia 25.137
rfoot -21.6816 -29.873
rtoes 0.550701
lfemur 7.74605 -15.7811 -33.2784
ltibia 23.4016
lfoot -22.7497 10.6501
ltoes 1.66538
2495
root 10.2061 15.172 22.3648 -1.53024 7.27347 2.77219
lowerback 6.2254 0.234846 -3.30281
upperback 1.20199 0.114108 0.635662
thorax -2.25815 0.0808666 2.50169
lowerneck -7.05828 -2.39074 -7.1268
upperneck 47.7478 -2.01406 0.897908
head 20.0384 -1.89401 1.4431
rclavicle 3.1731e-014 -9.93923e-015
rhumerus -37.7078 1.6005 -81.5418
rradius 30.3105
rwrist 19.5997
rhand -7.4086 -47.9471
rfingers 7.12502
rthumb 18.4778 -77.0895
lclavicle 3.1731e-014 -9.93923e-015
lhumerus -33.9136 10.3819 82.9477
lradius 32.0941
lwrist -17.3717
lhand -1.70776 -30.0085
lfingers 7.12502
lthumb 23.9537 -1.48275
rfemur -28.0343 18.5839 12.2213
rtibia 23.994
rfoot -23.2738 -31.8845
rtoes 2.69821
lfemur 8.13582 -15.7597 -33.3244
ltibia 23.1234
lfoot -22.7047 10.1109
ltoes 2.2609
2496
root 10.1846 15.1581 22.4607 -1.42401 7.52309 2.82793
lowerback 6.08068 0.213518 -3.43815
upperback 1.16129 0.0815643 0.638134
thorax -2.21724 0.0653636 2.58294
lowerneck -6.9901 -2.41353 -7.18626
upperneck 47.7087 -2.10564 1.04866
head 19.9998 -1.91987 1.51522
rclavicle 2.86747e-014 7.95139e-016
rhumerus -37.8091 1.49605 -81.4727
rradius 30.2297
rwrist 19.7229
rhand -7.48404 -48.0238
rfingers 7.12502
rthumb 18.4052 -77.1731
lclavicle 2.86747e-014 7.95139e-016
lhumerus -34.0337 10.6248 82.8418
lradius 32.1024
lwrist -17.7517
lhand -1.65115 -30.2278
lfingers 7.12502
lthumb 24.008 -1.70921
rfemur -28.2969 21.074 11.0489
rtibia 22.914
rfoot -26.3793 -34.1071
rtoes 7.35217
lfemur 8.4867 -15.5646 -33.202
ltibia 22.9472
lfoot -22.5373 9.99769
ltoes -0.166777
2497
root 10.1637 15.1354 22.5611 -1.33673 7.70262 2.80348
lowerback 5.89592 0.216186 -3.44184
upperback 1.12687 0.091278 0.647012
thorax -2.15026 0.0694941 2.59324
lowerneck -6.85746 -2.40837 -7.18535
upperneck 47.6479 -2.14449 1.13901
head 19.9198 -1.92048 1.55526
rclavicle 2.91468e-014 -7.95139e-015
rhumerus -37.9776 1.54624 -81.4354
rradius 30.1904
rwrist 19.8441
rhand -7.87248 -47.8426
rfingers 7.12502
rthumb 18.0315 -77.0268
lclavicle 2.91468e-014 -7.95139e-015
lhumerus -34.0733 10.5954 82.8318
lradius 31.9936
lwrist -17.853
lhand -1.53983 -30.3522
lfingers 7.12502
lthumb 24.1147 -1.84775
rfemur -28.6674 24.0417 9.67332
rtibia 21.6711
rfoot -30.6861 -36.3864
rtoes 14.2321
lfemur 8.73765 -14.8714 -32.9559
ltibia 23.0729
lfoot -22.0747 10.7607
ltoes -10.3378
2498
root 10.147 15.1364 22.6601 -1.23304 7.91055 2.86439
lowerback 5.7759 0.224044 -3.48036
upperback 1.06059 0.102089 0.619742
thorax -2.15234 0.0760336 2.58585
lowerneck -6.70013 -2.41116 -7.11179
upperneck 47.5347 -2.15861 1.10154
head 19.7893 -1.91253 1.52123
rclavicle 1.51076e-014 -1.03368e-014
rhumerus -38.1211 1.5164 -81.3675
rradius 30.1093
rwrist 19.9474
rhand -8.00701 -47.7245
rfingers 7.12502
rthumb 17.9021 -76.9205
lclavicle 1.51076e-014 -1.03368e-014
lhumerus -34.2124 10.5555 82.7955
lradius 32.0067
lwrist -17.956
lhand -1.7035 -30.6333
lfingers 7.12502
lthumb 23.9577 -2.10807
rfemur -28.8218 26.2451 8.56304
rtibia 20.6273
rfoot -33.553 -38.4775
rtoes 17.0494
lfemur 8.89156 -15.1436 -32.861
ltibia 23.2038
lfoot -22.7066 9.14443
ltoes 0.14441
2499
root 10.1264 15.1189 22.7554 -1.05392 8.20602 3.08823
lowerback 5.76502 0.216881 -3.72892
upperback 0.926735 0.0741627 0.564747
thorax -2.28258 0.0681647 2.67117
lowerneck -6.57099 -2.4447 -7.17391
upperneck 47.432 -2.25007 1.20824
head 19.6884 -1.94258 1.57108
rclavicle -8.10048e-015 -2.06736e-014
rhumerus -38.2922 1.25425 -81.1914
rradius 30.065
rwrist 19.9871
rhand -7.81622 -47.7496
rfingers 7.12502
rthumb 18.0857 -76.9287
lclavicle -8.10048e-015 -2.06736e-014
lhumerus -34.433 10.448 82.8046
lradius 32.136
lwrist -18.1041
lhand -1.93799 -30.6211
lfingers 7.12502
lthumb 23.7329 -2.06648
rfemur -29.4662 29.3094 6.67675
rtibia 19.7261
rfoot -37.1358 -40.8927
rtoes 19.937
lfemur 8.99711 -15.0683 -32.921
ltibia 23.3859
lfoot -22.5639 8.86272
ltoes -0.504962
2500
root 10.1049 15.1248 22.8485 -0.866013 8.51189 3.21813
lowerback 5.68154 0.175955 -3.92308
upperback 0.840623 0.00947046 0.558682
thorax -2.31999 0.0395164 2.77911
lowerneck -7.17777 -2.60124 -8.28093
upperneck 48.3034 -2.7486 2.54581
head 20.6279 -2.19807 2.38563
rclavicle 2.09718e-014 2.38542e-015
rhumerus -38.4428 0.986274 -81.0383
rradius 30.1594
rwrist 19.8471
rhand -7.23688 -48.2944
rfingers 7.12502
rthumb 18.643 -77.4211
lclavicle 2.09718e-014 2.38542e-015
lhumerus -34.3858 10.2434 82.8899
lradius 31.867
lwrist -18.049
lhand -1.97785 -30.3875
lfingers 7.12502
lthumb 23.6946 -1.82797
rfemur -29.734 30.9956 5.68388
rtibia 19.1936
rfoot -39.0459 -42.6737
rtoes 20.7832
lfemur 9.11745 -14.901 -32.8469
ltibia 23.456
lfoot -22.2168 8.87887
ltoes -3.53616
